# xmcd
#
# Track frame offsets:
#	150
#	13296
#	27654
#	41087
#	56121
#	67214
#	80604
#	93425
#	104288
#	115124
#	125819
#	137558
#	150416
#	162855
#	182817
#	196894
#	211191
#	223772
#	236664
#	249631
#	262991
#	275897
#	287844
#	300701
#	315516
#	328657
#
# Disc length: 4558 seconds
#
# Revision: 1
# Processed by: cddbd v1.5.2PL0 Copyright (c) Steve Scherf et al.
# Submitted via: audiograbber 1.83.01
#
DISCID=8e11cc1a
DTITLE=Various Artist - Boogiology - The Boogie Woogie Masters - CD1
DYEAR=2009
DGENRE=Boogie Woogie
TTITLE0=Pinetop Smith - Pinetop's Blues
TTITLE1=Cow Cow Davenport - Cow Cow Blues
TTITLE2=Romeo Nelson - Head Rag Hop
TTITLE3=Montana Taylor - Detroit Rocks
TTITLE4=Cleo Brown - Boogie Woogie
TTITLE5=Cripple Clarence Lofton - Strut That Thing!
TTITLE6=Meade Lux Lewis - Honky Tonk Train Blues
TTITLE7=Boogie Woogie Trio (Lewis, Johnson and Ammons) - Jumpin' Blues (Live)
TTITLE8=Joe Turner and Pete Johnson - Low Down Dog (Live)
TTITLE9=Boogie Woogie Boys (Lewis, Johnson and Ammons) - Boogie Woogie Prayer (Pa
TTITLE9=rt 1)
TTITLE10=Boogie Woogie Boys (Lewis, Johnson and Ammons) - Boogie Woogie Prayer (P
TTITLE10=art 2)
TTITLE11=Joe Turner and Pete Johnson - Roll Em' Pete
TTITLE12=Pete Johnson and Albert Ammons - Boogie Woogie Man
TTITLE13=Jimmy Yancey - Yancey Special
TTITLE14=Freddie Slack with Will Bradley Trio - Down The Road A Piece (1940)
TTITLE15=Buddy Johnson and his Band - Boogie Woogie's Mother-In-Law
TTITLE16=Harry "The Hipster" Gibson - Riot In Boogie
TTITLE17=Mildred Anderson with Albert Ammons' Rhythm Kings - Doin' The Boogie W
TTITLE17=oogie
TTITLE18=Pete Johnson's All Stars - 1946 Stomp
TTITLE19=Big Maceo and Tampa Red - Chicago Breakdown
TTITLE20=Willie "Long Time" Smith - I Love You Baby Boogie
TTITLE21=Sonny Thompson with Dick Davis Orchestra - Screamin' Boogie
TTITLE22=Lloyd Glenn and his Joymakers - Boogiology
TTITLE23=Hadda Brooks - Swingin' The Boogie
TTITLE24=Errol Garner Trio - Twistin' The Cat's Tail
TTITLE25=Gene Ammons and his Band - Ammons Boogie
EXTD=
EXTT0=
EXTT1=
EXTT2=
EXTT3=
EXTT4=
EXTT5=
EXTT6=
EXTT7=
EXTT8=
EXTT9=
EXTT10=
EXTT11=
EXTT12=
EXTT13=
EXTT14=
EXTT15=
EXTT16=
EXTT17=
EXTT18=
EXTT19=
EXTT20=
EXTT21=
EXTT22=
EXTT23=
EXTT24=
EXTT25=
PLAYORDER=
